<?xml version="1.0" encoding="utf-8"?>
<!-- Generator: Adobe Illustrator 26.0.2, SVG Export Plug-In . SVG Version: 6.00 Build 0)  -->
<svg version="1.1" id="Layer_1" xmlns="http://www.w3.org/2000/svg" xmlns:xlink="http://www.w3.org/1999/xlink" x="0px" y="0px"
	 viewBox="0 0 475.5 114.3" style="enable-background:new 0 0 475.5 114.3;" xml:space="preserve">
<style type="text/css">
	.st0{fill:none;stroke:#ED1C24;stroke-width:4.162588e-02;stroke-miterlimit:10;}
	.st1{fill:none;stroke:#ED1C24;stroke-width:4.161720e-02;stroke-miterlimit:10;}
	.st2{fill:none;stroke:#ED1C24;stroke-width:4.160169e-02;stroke-miterlimit:10;}
	.st3{fill:none;stroke:#ED1C24;stroke-width:4.161053e-02;stroke-miterlimit:10;}
	.st4{fill:none;stroke:#ED1C24;stroke-width:4.160159e-02;stroke-miterlimit:10;}
	.st5{fill:none;stroke:#ED1C24;stroke-width:4.162285e-02;stroke-miterlimit:10;}
	.st6{fill:none;stroke:#ED1C24;stroke-width:4.162943e-02;stroke-miterlimit:10;}
	.st7{fill:none;stroke:#ED1C24;stroke-width:4.166408e-02;stroke-miterlimit:10;}
	.st8{fill:none;stroke:#ED1C24;stroke-width:3.656212e-02;stroke-miterlimit:10;}
	.st9{fill:none;stroke:#ED1C24;stroke-width:3.619677e-02;stroke-miterlimit:10;}
	.st10{fill:none;stroke:#ED1C24;stroke-width:5.067046e-02;stroke-miterlimit:10;}
	.st11{fill:none;stroke:#ED1C24;stroke-width:4.677211e-02;stroke-miterlimit:10;}
	.st12{fill:none;stroke:#ED1C24;stroke-width:4.166407e-02;stroke-miterlimit:10;}
	.st13{fill:none;stroke:#ED1C24;stroke-width:4.157570e-02;stroke-miterlimit:10;}
	.st14{fill:none;stroke:#ED1C24;stroke-width:5.000000e-02;stroke-miterlimit:10;}
</style>
<g>
	<g>
		<path d="M99,77.8V26.4c0-0.5-0.4-0.9-0.9-0.9H76.6c-0.3,0-0.5,0.2-0.5,0.5c0,0.3,0.2,0.6,0.5,0.6H81c2.5,0,4.5,0.7,5.1,1.8
			c0.2,0.4,0.2,1,0,1.5L70.6,68.6l-17.4-43H30c-0.3,0-0.4,0.2-0.4,0.6c0,0.3,0.2,0.6,0.5,0.6c2,0,4.7-0.1,6.8,0.6
			c1.8,0.6,2.7,2.6,2,4.4l-23,57h6.8c0.3,0,0.5-0.2,0.5-0.5c0-0.3-0.2-0.5-0.5-0.5c-3.2-0.2-3.8-2.2-1.5-7.7l19.7-48.7
			c0.2-0.5,1-0.5,1.2,0L62.1,81l4.4,0c0.4,0,0.8-0.3,1-0.7l3.9-9.7l13.9-34.4c0.2-0.6,1.1-0.5,1.1,0.1v45.8c0,3-2.4,5.4-5.4,5.4
			h-4.7c-0.2,0-0.5,0.3-0.5,0.6c0,0.3,0.2,0.5,0.5,0.5H94c0.6,0,1.1-0.3,1.3-0.9l3.4-8.3C98.9,79,99,78.4,99,77.8z"/>
	</g>
	<g>
		<path d="M185.5,25.6l-17.1,42.3l-17.1-42.4l-9.8,0c-0.5,0-1,0.3-1.2,0.8l-1.3,3.1l2.8,7l-21.1,52.2h1.8h5.9c0.3,0,0.6-0.3,0.6-0.6
			s-0.3-0.6-0.6-0.6h-1.8c-1.7,0-2.9-1.7-2.3-3.4l18.4-45.5l17,42.2h4.4c0.4,0,0.8-0.2,1-0.6l17.8-44.1c0.2-0.6,1.1-0.4,1.1,0.2
			l0.1,52.3l3.8,0l0,0h48.5l2.4-0.1c4-0.2,7.9-1.1,11.5-2.7c7.3-3.3,13.1-9.3,16.1-16.7c0.8-1.9,0.8-4.1-0.1-6l-14.6-34l-1-2.4
			c-0.3-0.8-1.1-1.3-1.9-1.3l-11.3,0h-0.6c-17,0.7-30.6,14.6-30.6,31.6c0,10.3,5,19.5,12.8,25.3c2.2,1.6,1,5.2-1.8,5.2l-11.4,0
			c-0.8,0-5.5-0.1-6.2-0.3c-2-0.9-3.2-2.9-3.2-5.1V32.1c0-3,2.4-5.4,5.4-5.4l4.4,0c0.3,0,0.5-0.2,0.5-0.5c0-0.3-0.2-0.5-0.5-0.5
			L185.5,25.6z M237.6,87.8L237.6,87.8c-11.7-0.5-18.6-14-18.6-30.6c0-15.2,5.8-27.9,15.8-30.2c1.8-0.4,3.8-0.4,5.6,0
			c10,2.4,15.8,15,15.8,30.2C256.2,73.8,249.3,87.3,237.6,87.8z"/>
	</g>
	<g>
		<path d="M98.1,88.7l22.5-55.6c2.2-6.4-1.3-6.4-6.5-6.4c-0.3,0-0.4-0.3-0.4-0.6c0-0.3,0.2-0.5,0.5-0.5h23.2l-25.5,63.1L98.1,88.7z"
			/>
	</g>
	<g>
		<path d="M254.8,25.6c-0.4,0-0.7,0.5-0.6,0.8l8.7,21.4c0.1,0.2,0.3,0.3,0.5,0.3c0.4,0,0.7-0.4,0.5-0.7l-4.6-11.5
			c-1.8-4.4,1.4-9.1,6.1-9.1h11.4c1,0.1,1.8,1,1.8,2v50.4l3.9,9.6H302c0.3,0,0.4-0.3,0.4-0.6c0-0.3-0.2-0.5-0.5-0.5h-4.4
			c-2.9,0-5.3-2.2-5.3-5.1l0-53.7c0-1,0.4-2,1.8-2l4.5,0c4.6,0,7.7,2.1,9.6,5.6l22.6,55.8c0.1,0.2,0.3,0.3,0.6,0.3
			c16.3-4,14.7,19.4,0.2,15.8c-6.1-1.5-12.4-6.9-12.7-13.5c0-0.3-0.2-0.5-0.5-0.5h0c-0.3,0-0.5,0.2-0.5,0.5v14c0,0.1,0,0.2,0.1,0.3
			c2.8,3,6.8,4.4,10.6,4.3C342,108.9,349.1,98,344,86.8l-3.1-7.6l-2.8-6.9l12.2-30.1l18.8,46.5H383L377,74c-0.5-1.1-0.9-2.5,0.3-2.8
			c0.4-0.1,0.7-0.1,1.1,0c7,2,13.7,1.3,19.9-1.3c1.9-0.9,3.3-2.3,4.2-4c1.4-2.6,1.5-5.7,0.4-8.4l-6.6-16.2c-1.4-3.5-3.4-6.7-6.1-9.3
			c-0.1-0.1-0.1-0.1-0.2-0.2c-4.2-4.1-10-6.4-15.9-6.4h-5.7l-25.1,0l-3.1,0c-0.3,0-0.5,0.3-0.5,0.6c0,0.3,0.2,0.6,0.6,0.6h2.2
			c0.9,0,1.8,0.6,2.1,1.4l4.8,11.8L337.3,70l-16.6-40.9c-0.9-2.1-3-3.5-5.3-3.5L254.8,25.6z M386.4,71.6
			c-6.1-0.3-11.3-2.1-15.4-12.3l-11.7-28.8c-0.9-2.1-0.7-3.6,1.6-3.7l2.5,0c6.5,0,13.6,3.2,17.8,8.3c3.9,4.6,9,17,10.7,23.8
			C393.7,65.3,393.8,71.6,386.4,71.6z"/>
	</g>
	<g>
		<path d="M416.2,47.9c0,0,1.3,0,1.7,0.1c4.3,0.5,9.2,1.9,14.1,5.2c0.4,0.2,0.8-0.1,0.7-0.5c-0.3-1.6-0.9-4.5-1.1-5.5
			c0-0.2-0.2-0.4-0.5-0.4h-15.3l-3.5-8.7l-4.6-11.4c0,0,1,0,1,0c16.7,0,17.9,0.5,27.6,4.3c0.3,0.1,0.7-0.1,0.7-0.5l0-4.5
			c0-0.3-0.2-0.5-0.5-0.5l-48.4,0c-0.3,0-0.6,0.2-0.6,0.6c0,0.3,0.3,0.6,0.6,0.6c3.7,0,5.3-0.1,7.1,3.3l23.7,58.7l41.1-0.1
			c0.3,0,0.5-0.2,0.5-0.5l0-4.5c0-0.3-0.3-0.6-0.6-0.4c-6,2.4-9.3,3.6-15,4.1c-1.3,0.1-2.6,0.2-3.9,0.2l-8.6,0L416.2,47.9z"/>
	</g>
</g>
</svg>
